<mxfile host="app.diagrams.net" modified="2023-05-12T19:37:34.565Z" agent="Mozilla/5.0 (Windows NT 10.0; Win64; x64) AppleWebKit/537.36 (KHTML, like Gecko) Chrome/113.0.0.0 Safari/537.36" etag="RYTOzjiIYHQIBmLSvNWL" version="21.2.9" type="github">
  <diagram name="Page-1" id="HQtYEdvMHECK5UPGg0pq">
    <mxGraphModel dx="880" dy="452" grid="1" gridSize="10" guides="1" tooltips="1" connect="1" arrows="1" fold="1" page="1" pageScale="1" pageWidth="850" pageHeight="1100" math="0" shadow="0">
      <root>
        <mxCell id="0" />
        <mxCell id="1" parent="0" />
        <mxCell id="I6wZuCsDh1HZ-9oTuuNC-1" value="&lt;font style=&quot;font-size: 18px;&quot;&gt;Patient&lt;/font&gt;" style="ellipse;whiteSpace=wrap;html=1;" parent="1" vertex="1">
          <mxGeometry x="190" y="310" width="120" height="80" as="geometry" />
        </mxCell>
        <mxCell id="I6wZuCsDh1HZ-9oTuuNC-2" value="&lt;font style=&quot;font-size: 18px;&quot;&gt;managing patient&lt;br style=&quot;border-color: var(--border-color);&quot;&gt;&lt;span style=&quot;border-color: var(--border-color);&quot;&gt;Profiles&lt;/span&gt;&lt;br&gt;&lt;/font&gt;" style="ellipse;whiteSpace=wrap;html=1;" parent="1" vertex="1">
          <mxGeometry y="210" width="130" height="90" as="geometry" />
        </mxCell>
        <mxCell id="I6wZuCsDh1HZ-9oTuuNC-3" value="" style="endArrow=none;html=1;rounded=0;exitX=0;exitY=0;exitDx=0;exitDy=0;entryX=1;entryY=1;entryDx=0;entryDy=0;" parent="1" source="I6wZuCsDh1HZ-9oTuuNC-1" target="I6wZuCsDh1HZ-9oTuuNC-2" edge="1">
          <mxGeometry width="50" height="50" relative="1" as="geometry">
            <mxPoint x="150" y="290" as="sourcePoint" />
            <mxPoint x="90" y="250" as="targetPoint" />
          </mxGeometry>
        </mxCell>
        <mxCell id="I6wZuCsDh1HZ-9oTuuNC-4" value="&lt;font style=&quot;font-size: 18px;&quot;&gt;Booking Appointment.&lt;br&gt;&lt;/font&gt;" style="ellipse;whiteSpace=wrap;html=1;" parent="1" vertex="1">
          <mxGeometry x="150" y="170" width="140" height="80" as="geometry" />
        </mxCell>
        <mxCell id="I6wZuCsDh1HZ-9oTuuNC-5" value="" style="endArrow=none;html=1;rounded=0;exitX=0.5;exitY=0;exitDx=0;exitDy=0;" parent="1" source="I6wZuCsDh1HZ-9oTuuNC-1" target="I6wZuCsDh1HZ-9oTuuNC-4" edge="1">
          <mxGeometry width="50" height="50" relative="1" as="geometry">
            <mxPoint x="235" y="289" as="sourcePoint" />
            <mxPoint x="190" y="250" as="targetPoint" />
          </mxGeometry>
        </mxCell>
        <mxCell id="I6wZuCsDh1HZ-9oTuuNC-7" value="&lt;font style=&quot;font-size: 18px;&quot;&gt;browsing specialists/doctors&lt;br&gt;&lt;/font&gt;" style="ellipse;whiteSpace=wrap;html=1;" parent="1" vertex="1">
          <mxGeometry x="10" y="390" width="160" height="100" as="geometry" />
        </mxCell>
        <mxCell id="I6wZuCsDh1HZ-9oTuuNC-10" value="" style="endArrow=none;html=1;rounded=0;" parent="1" target="I6wZuCsDh1HZ-9oTuuNC-7" edge="1">
          <mxGeometry width="50" height="50" relative="1" as="geometry">
            <mxPoint x="210" y="380" as="sourcePoint" />
            <mxPoint x="110" y="337.5" as="targetPoint" />
          </mxGeometry>
        </mxCell>
        <mxCell id="I6wZuCsDh1HZ-9oTuuNC-16" value="&lt;font style=&quot;font-size: 18px;&quot;&gt;Doctor&lt;/font&gt;" style="ellipse;whiteSpace=wrap;html=1;" parent="1" vertex="1">
          <mxGeometry x="630" y="310" width="90" height="60" as="geometry" />
        </mxCell>
        <mxCell id="I6wZuCsDh1HZ-9oTuuNC-17" value="&lt;font style=&quot;font-size: 18px;&quot;&gt;Record&lt;br&gt;Appointment.&lt;br&gt;Details&lt;br&gt;&lt;/font&gt;" style="ellipse;whiteSpace=wrap;html=1;" parent="1" vertex="1">
          <mxGeometry x="480" y="200" width="130" height="90" as="geometry" />
        </mxCell>
        <mxCell id="I6wZuCsDh1HZ-9oTuuNC-18" value="" style="endArrow=none;html=1;rounded=0;exitX=0;exitY=0;exitDx=0;exitDy=0;entryX=1;entryY=1;entryDx=0;entryDy=0;" parent="1" source="I6wZuCsDh1HZ-9oTuuNC-16" target="I6wZuCsDh1HZ-9oTuuNC-17" edge="1">
          <mxGeometry width="50" height="50" relative="1" as="geometry">
            <mxPoint x="520" y="280" as="sourcePoint" />
            <mxPoint x="460" y="240" as="targetPoint" />
          </mxGeometry>
        </mxCell>
        <mxCell id="I6wZuCsDh1HZ-9oTuuNC-19" value="&lt;font style=&quot;font-size: 18px;&quot;&gt;managing &lt;br&gt;Doctor&lt;br&gt;Profiles&lt;br&gt;&lt;/font&gt;" style="ellipse;whiteSpace=wrap;html=1;" parent="1" vertex="1">
          <mxGeometry x="690" y="220" width="140" height="80" as="geometry" />
        </mxCell>
        <mxCell id="I6wZuCsDh1HZ-9oTuuNC-20" value="" style="endArrow=none;html=1;rounded=0;exitX=1;exitY=0.375;exitDx=0;exitDy=0;exitPerimeter=0;" parent="1" source="I6wZuCsDh1HZ-9oTuuNC-16" target="I6wZuCsDh1HZ-9oTuuNC-19" edge="1">
          <mxGeometry width="50" height="50" relative="1" as="geometry">
            <mxPoint x="605" y="279" as="sourcePoint" />
            <mxPoint x="560" y="240" as="targetPoint" />
          </mxGeometry>
        </mxCell>
        <mxCell id="I6wZuCsDh1HZ-9oTuuNC-24" value="&lt;font style=&quot;font-size: 18px;&quot;&gt;Notification&lt;/font&gt;" style="ellipse;whiteSpace=wrap;html=1;" parent="1" vertex="1">
          <mxGeometry x="605" y="520" width="120" height="80" as="geometry" />
        </mxCell>
        <mxCell id="I6wZuCsDh1HZ-9oTuuNC-25" value="&lt;font style=&quot;font-size: 18px;&quot;&gt;Booking&lt;br&gt;Appointment.&lt;br&gt;For Patient&lt;br&gt;&lt;/font&gt;" style="ellipse;whiteSpace=wrap;html=1;" parent="1" vertex="1">
          <mxGeometry x="425" y="450" width="130" height="90" as="geometry" />
        </mxCell>
        <mxCell id="I6wZuCsDh1HZ-9oTuuNC-26" value="" style="endArrow=none;html=1;rounded=0;exitX=0;exitY=0;exitDx=0;exitDy=0;" parent="1" source="I6wZuCsDh1HZ-9oTuuNC-24" edge="1">
          <mxGeometry width="50" height="50" relative="1" as="geometry">
            <mxPoint x="525" y="490" as="sourcePoint" />
            <mxPoint x="550" y="500" as="targetPoint" />
          </mxGeometry>
        </mxCell>
        <mxCell id="I6wZuCsDh1HZ-9oTuuNC-27" value="&lt;font style=&quot;font-size: 18px;&quot;&gt;Record Appointment.&lt;br&gt;for Doctor&lt;br&gt;&lt;/font&gt;" style="ellipse;whiteSpace=wrap;html=1;" parent="1" vertex="1">
          <mxGeometry x="690" y="430" width="105" height="80" as="geometry" />
        </mxCell>
        <mxCell id="I6wZuCsDh1HZ-9oTuuNC-28" value="" style="endArrow=none;html=1;rounded=0;" parent="1" source="I6wZuCsDh1HZ-9oTuuNC-24" edge="1">
          <mxGeometry width="50" height="50" relative="1" as="geometry">
            <mxPoint x="610" y="489" as="sourcePoint" />
            <mxPoint x="720" y="500" as="targetPoint" />
          </mxGeometry>
        </mxCell>
        <mxCell id="I6wZuCsDh1HZ-9oTuuNC-29" value="&lt;font style=&quot;font-size: 18px;&quot;&gt;Payment&lt;br&gt;Appointment.&lt;br&gt;Notifiy&lt;br&gt;&lt;/font&gt;" style="ellipse;whiteSpace=wrap;html=1;" parent="1" vertex="1">
          <mxGeometry x="425" y="560" width="130" height="90" as="geometry" />
        </mxCell>
        <mxCell id="I6wZuCsDh1HZ-9oTuuNC-30" value="" style="endArrow=none;html=1;rounded=0;exitX=0;exitY=1;exitDx=0;exitDy=0;entryX=1;entryY=0.667;entryDx=0;entryDy=0;entryPerimeter=0;" parent="1" source="I6wZuCsDh1HZ-9oTuuNC-24" target="I6wZuCsDh1HZ-9oTuuNC-29" edge="1">
          <mxGeometry width="50" height="50" relative="1" as="geometry">
            <mxPoint x="623" y="642" as="sourcePoint" />
            <mxPoint x="465" y="560" as="targetPoint" />
          </mxGeometry>
        </mxCell>
        <mxCell id="I6wZuCsDh1HZ-9oTuuNC-31" value="&lt;font style=&quot;font-size: 18px;&quot;&gt;Payment&lt;/font&gt;" style="ellipse;whiteSpace=wrap;html=1;" parent="1" vertex="1">
          <mxGeometry x="120" y="640" width="120" height="80" as="geometry" />
        </mxCell>
        <mxCell id="I6wZuCsDh1HZ-9oTuuNC-32" value="&lt;font style=&quot;font-size: 18px;&quot;&gt;Payments Of Patients&lt;br&gt;&lt;/font&gt;" style="ellipse;whiteSpace=wrap;html=1;" parent="1" vertex="1">
          <mxGeometry x="10" y="525" width="130" height="90" as="geometry" />
        </mxCell>
        <mxCell id="I6wZuCsDh1HZ-9oTuuNC-33" value="&lt;font style=&quot;font-size: 18px;&quot;&gt;Fees Of Doctor&lt;br&gt;&lt;/font&gt;" style="ellipse;whiteSpace=wrap;html=1;" parent="1" vertex="1">
          <mxGeometry x="210" y="535" width="80" height="75" as="geometry" />
        </mxCell>
        <mxCell id="I6wZuCsDh1HZ-9oTuuNC-34" value="" style="endArrow=none;html=1;rounded=0;exitX=0;exitY=1;exitDx=0;exitDy=0;" parent="1" target="I6wZuCsDh1HZ-9oTuuNC-31" edge="1">
          <mxGeometry width="50" height="50" relative="1" as="geometry">
            <mxPoint x="99" y="610" as="sourcePoint" />
            <mxPoint x="31" y="642" as="targetPoint" />
          </mxGeometry>
        </mxCell>
        <mxCell id="I6wZuCsDh1HZ-9oTuuNC-35" value="" style="endArrow=none;html=1;rounded=0;exitX=0;exitY=1;exitDx=0;exitDy=0;" parent="1" target="I6wZuCsDh1HZ-9oTuuNC-31" edge="1">
          <mxGeometry width="50" height="50" relative="1" as="geometry">
            <mxPoint x="240" y="610" as="sourcePoint" />
            <mxPoint x="284" y="648" as="targetPoint" />
          </mxGeometry>
        </mxCell>
        <mxCell id="I6wZuCsDh1HZ-9oTuuNC-37" value="&lt;font style=&quot;font-size: 18px;&quot;&gt;Admin&lt;/font&gt;" style="ellipse;whiteSpace=wrap;html=1;" parent="1" vertex="1">
          <mxGeometry x="320" y="825" width="120" height="80" as="geometry" />
        </mxCell>
        <mxCell id="I6wZuCsDh1HZ-9oTuuNC-38" value="&lt;font style=&quot;font-size: 18px;&quot;&gt;Manage Appoint&lt;br&gt;&lt;/font&gt;" style="ellipse;whiteSpace=wrap;html=1;" parent="1" vertex="1">
          <mxGeometry x="490" y="750" width="130" height="90" as="geometry" />
        </mxCell>
        <mxCell id="I6wZuCsDh1HZ-9oTuuNC-40" value="" style="endArrow=none;html=1;rounded=0;" parent="1" source="I6wZuCsDh1HZ-9oTuuNC-38" target="I6wZuCsDh1HZ-9oTuuNC-37" edge="1">
          <mxGeometry width="50" height="50" relative="1" as="geometry">
            <mxPoint x="384" y="795" as="sourcePoint" />
            <mxPoint x="316" y="827" as="targetPoint" />
            <Array as="points" />
          </mxGeometry>
        </mxCell>
        <mxCell id="I6wZuCsDh1HZ-9oTuuNC-44" value="" style="endArrow=none;dashed=1;html=1;rounded=0;entryX=0;entryY=0.333;entryDx=0;entryDy=0;entryPerimeter=0;" parent="1" target="I6wZuCsDh1HZ-9oTuuNC-17" edge="1">
          <mxGeometry width="50" height="50" relative="1" as="geometry">
            <mxPoint x="290" y="200" as="sourcePoint" />
            <mxPoint x="340" y="150" as="targetPoint" />
          </mxGeometry>
        </mxCell>
        <mxCell id="I6wZuCsDh1HZ-9oTuuNC-45" value="" style="endArrow=none;dashed=1;html=1;rounded=0;entryX=0;entryY=0;entryDx=0;entryDy=0;" parent="1" target="I6wZuCsDh1HZ-9oTuuNC-25" edge="1">
          <mxGeometry width="50" height="50" relative="1" as="geometry">
            <mxPoint x="270" y="240" as="sourcePoint" />
            <mxPoint x="460" y="270" as="targetPoint" />
          </mxGeometry>
        </mxCell>
        <mxCell id="I6wZuCsDh1HZ-9oTuuNC-46" value="" style="endArrow=none;dashed=1;html=1;rounded=0;entryX=0;entryY=0.333;entryDx=0;entryDy=0;entryPerimeter=0;exitX=0.5;exitY=1;exitDx=0;exitDy=0;" parent="1" source="I6wZuCsDh1HZ-9oTuuNC-17" edge="1">
          <mxGeometry width="50" height="50" relative="1" as="geometry">
            <mxPoint x="520" y="420" as="sourcePoint" />
            <mxPoint x="710" y="450" as="targetPoint" />
          </mxGeometry>
        </mxCell>
        <mxCell id="I6wZuCsDh1HZ-9oTuuNC-47" value="" style="endArrow=none;dashed=1;html=1;rounded=0;entryX=0.5;entryY=0;entryDx=0;entryDy=0;" parent="1" target="I6wZuCsDh1HZ-9oTuuNC-31" edge="1">
          <mxGeometry width="50" height="50" relative="1" as="geometry">
            <mxPoint x="240" y="390" as="sourcePoint" />
            <mxPoint x="414" y="613" as="targetPoint" />
          </mxGeometry>
        </mxCell>
        <mxCell id="I6wZuCsDh1HZ-9oTuuNC-49" value="" style="endArrow=none;dashed=1;html=1;rounded=0;entryX=1;entryY=0.5;entryDx=0;entryDy=0;" parent="1" target="I6wZuCsDh1HZ-9oTuuNC-16" edge="1">
          <mxGeometry width="50" height="50" relative="1" as="geometry">
            <mxPoint x="180" y="720" as="sourcePoint" />
            <mxPoint x="830" y="500" as="targetPoint" />
            <Array as="points">
              <mxPoint x="320" y="960" />
              <mxPoint x="710" y="960" />
              <mxPoint x="840" y="480" />
            </Array>
          </mxGeometry>
        </mxCell>
        <mxCell id="I6wZuCsDh1HZ-9oTuuNC-50" value="" style="endArrow=none;dashed=1;html=1;rounded=0;exitX=0.375;exitY=0.023;exitDx=0;exitDy=0;exitPerimeter=0;entryX=0.723;entryY=0.975;entryDx=0;entryDy=0;entryPerimeter=0;" parent="1" source="I6wZuCsDh1HZ-9oTuuNC-37" target="I6wZuCsDh1HZ-9oTuuNC-1" edge="1">
          <mxGeometry width="50" height="50" relative="1" as="geometry">
            <mxPoint x="340" y="790" as="sourcePoint" />
            <mxPoint x="330" y="520" as="targetPoint" />
          </mxGeometry>
        </mxCell>
        <mxCell id="I6wZuCsDh1HZ-9oTuuNC-51" value="" style="endArrow=none;dashed=1;html=1;rounded=0;exitX=0.375;exitY=0.023;exitDx=0;exitDy=0;exitPerimeter=0;" parent="1" edge="1">
          <mxGeometry width="50" height="50" relative="1" as="geometry">
            <mxPoint x="398" y="825" as="sourcePoint" />
            <mxPoint x="820" y="480" as="targetPoint" />
            <Array as="points">
              <mxPoint x="710" y="620" />
              <mxPoint x="800" y="560" />
            </Array>
          </mxGeometry>
        </mxCell>
        <mxCell id="I6wZuCsDh1HZ-9oTuuNC-52" value="" style="endArrow=none;dashed=1;html=1;rounded=0;exitX=0.99;exitY=0.79;exitDx=0;exitDy=0;exitPerimeter=0;" parent="1" source="I6wZuCsDh1HZ-9oTuuNC-16" edge="1">
          <mxGeometry width="50" height="50" relative="1" as="geometry">
            <mxPoint x="710" y="350" as="sourcePoint" />
            <mxPoint x="820" y="480" as="targetPoint" />
          </mxGeometry>
        </mxCell>
      </root>
    </mxGraphModel>
  </diagram>
</mxfile>
